<?xml version="1.0" encoding="utf-8"?>
<!-- Generator: Adobe Illustrator 16.0.0, SVG Export Plug-In . SVG Version: 6.00 Build 0)  -->
<!DOCTYPE svg PUBLIC "-//W3C//DTD SVG 1.1//EN" "http://www.w3.org/Graphics/SVG/1.1/DTD/svg11.dtd">
<svg version="1.1" id="Layer_1" xmlns="http://www.w3.org/2000/svg" xmlns:xlink="http://www.w3.org/1999/xlink" x="0px" y="0px"
	 width="1200px" height="1200px" viewBox="0 0 1200 1200" enable-background="new 0 0 1200 1200" xml:space="preserve">
<g>
	<g opacity="0.3">
		
			<linearGradient id="SVGID_1_" gradientUnits="userSpaceOnUse" x1="592.6523" y1="603.5684" x2="592.8438" y2="603.5684" gradientTransform="matrix(-1 0 0 1 1195.7812 0)">
			<stop  offset="0" style="stop-color:#000000"/>
			<stop  offset="1" style="stop-color:#FFFFFF;stop-opacity:0"/>
		</linearGradient>
		<path fill="url(#SVGID_1_)" d="M603.129,603.477c-0.047,0.062-0.092,0.123-0.139,0.185c-0.019-0.017-0.032-0.034-0.053-0.052
			C602.951,603.602,603.115,603.486,603.129,603.477z"/>
		<g>
			
				<linearGradient id="SVGID_2_" gradientUnits="userSpaceOnUse" x1="127.3291" y1="603.5693" x2="1058.165" y2="603.5693" gradientTransform="matrix(-1 0 0 1 1195.7812 0)">
				<stop  offset="0" style="stop-color:#000000"/>
				<stop  offset="1" style="stop-color:#FFFFFF;stop-opacity:0"/>
			</linearGradient>
			<path fill="url(#SVGID_2_)" d="M595.583,1136.688L145.066,876.58c-4.61-2.662-7.45-7.582-7.45-12.906V343.462
				c0-5.323,2.84-10.244,7.45-12.906L595.583,70.452c4.61-2.662,10.291-2.662,14.902,0l450.516,260.104
				c4.61,2.662,7.451,7.583,7.451,12.906v520.212c0,5.324-2.841,10.244-7.451,12.906l-450.516,260.107
				c-2.308,1.329-4.88,1.995-7.451,1.995C600.46,1138.683,597.887,1138.017,595.583,1136.688z M1038.647,352.066L603.034,100.564
				L167.42,352.066v503.005l435.614,251.502l435.613-251.502V352.066z"/>
		</g>
		
			<linearGradient id="SVGID_3_" gradientUnits="userSpaceOnUse" x1="592.6787" y1="603.5684" x2="592.8164" y2="603.5684" gradientTransform="matrix(-1 0 0 1 1195.7812 0)">
			<stop  offset="0" style="stop-color:#000000"/>
			<stop  offset="1" style="stop-color:#FFFFFF;stop-opacity:0"/>
		</linearGradient>
		<path fill="url(#SVGID_3_)" d="M603.006,603.514c0.035,0.04,0.064,0.072,0.097,0.11c-0.044-0.021-0.093-0.038-0.138-0.057
			C602.979,603.549,602.992,603.533,603.006,603.514z"/>
		
			<linearGradient id="SVGID_4_" gradientUnits="userSpaceOnUse" x1="229.7119" y1="603.5684" x2="955.7842" y2="603.5684" gradientTransform="matrix(-1 0 0 1 1195.7812 0)">
			<stop  offset="0" style="stop-color:#000000"/>
			<stop  offset="1" style="stop-color:#FFFFFF;stop-opacity:0"/>
		</linearGradient>
		<path fill="url(#SVGID_4_)" d="M243.303,738.33c-1.726,6.702-2.643,13.73-2.643,20.971c0,45.377,36.044,82.309,81.056,83.787
			c2.195,0.171,4.405,0.284,6.643,0.284c23.628,0,44.978-9.724,60.298-25.37c0.715-0.445,1.444-0.86,2.211-1.208
			c8.734,4.558,17.228,8.989,25.709,13.414c-0.038-0.036-0.071-0.072-0.105-0.108c2.249,1.504,4.433,3.109,6.753,4.485
			c14.833,8.804,29.67,17.593,44.557,26.308c7.951,4.652,15.986,9.167,24.009,13.695c10.583,5.977,21.199,11.882,31.778,17.863
			c1.517,0.855,2.894,1.951,4.516,3.057c-0.247,1.226-0.329,2.382-0.715,3.427c-1.899,5.14-4.013,10.204-5.798,15.381
			c-1.701,4.949-2.943,9.979-3.532,15.126c-0.685,4.102-1.081,8.302-1.081,12.597c0,18.767,6.801,35.935,18.053,49.21
			c15.239,20.211,39.147,33.509,66.205,34.367c0.651,0.026,1.3,0.038,1.949,0.048c0.276,0.003,0.551,0.021,0.831,0.021
			c0.089,0,0.175-0.007,0.265-0.007c1.191-0.002,2.376-0.032,3.559-0.09c0.752-0.034,1.495-0.087,2.241-0.139
			c0.089-0.008,0.178-0.014,0.266-0.02c7.23-0.525,14.212-1.937,20.841-4.131c1.254-0.376,2.505-0.761,3.757-1.17
			c5.109-1.672,9.854-4.249,14.327-7.25c7.49-4.619,14.211-10.356,19.953-16.966c7.097-7.706,12.903-16.486,17.079-26.597
			c1.856-4.495,3.312-9.257,4.185-14.037c2.623-14.316,2.243-28.49-3.25-42.237c-1.308-3.275-2.49-6.603-3.65-9.937
			c-0.575-1.657-1.119-3.358-1.417-5.082c-0.356-2.064,0.298-3.938,2.055-5.189c1.914-1.365,3.855-2.722,5.913-3.849
			c17.532-9.6,35.115-19.1,52.637-28.721c9.273-5.093,18.453-10.366,27.678-15.548c14.354-8.063,28.663-16.206,43.094-24.131
			c6.091-3.346,5.764-4.294,11.677,1.173c11.132,10.295,24.592,15.801,39.028,19.434c9.479,2.387,19.135,2.126,28.644,1.135
			c7.756-0.812,15.228-3.487,22.487-6.576c11.611-4.944,21.322-12.277,29.304-22.037c4.476-5.472,9.06-10.839,12.245-17.212
			c6.618-13.247,9.398-27.249,9.139-42.067c-0.229-13.068-3.938-25.124-9.393-36.72c-2.996-6.369-6.763-12.381-10.262-18.506
			c-1.094-1.915-2.199-3.82-3.297-5.729l-19.878-31.421c-0.043-0.035-0.081-0.074-0.123-0.11c0-0.013-0.028,0.044-0.028,0.044
			c0.004-0.064-0.01-0.123-0.01-0.187l-8.694-13.743c-3.783-5.395-7.579-10.782-11.337-16.195
			c-6.527-9.394-6.489-9.412-6.486-20.563c0.004-13.906-0.007-27.808-0.013-41.71c0-0.785-0.032-1.568-0.008-2.353
			c0.168-5.12,0.774-5.979,5.986-6.962c8.008-1.512,15.281-4.657,22.079-9.108c14.539-9.529,26.188-21.684,33.876-37.374
			c4.427-9.036,7.393-18.532,7.398-28.722c0-5.871,0.315-11.821-0.517-17.591c-1.055-7.335-2.894-14.616-5.883-21.452
			c-2.191-5.01-4.877-9.81-7.441-14.651l-4.824-7.904c-0.927-1.861-1.88-3.706-2.941-5.487
			c-6.42-10.778-12.909-21.518-19.549-32.164c-3.932-6.305-7.964-12.551-11.987-18.801l-16.138-26.425
			c-0.232-0.41-0.463-0.82-0.703-1.226c-0.208-0.353-0.435-0.673-0.655-1l-0.077-0.129c0,0,0.004,0.014,0.004,0.017
			c-5.147-7.496-13.644-8.249-19.666-6.394c-3.767,1.16-6.488,3.55-8.64,6.708c-0.305,0.45-0.603,0.908-0.903,1.361l-33.475,51.628
			c-0.024,0.042-0.049,0.081-0.074,0.12l-7.265,11.199l-0.884,1.36v0l-2.024,3.122c-0.393,0.569-0.77,1.147-1.167,1.714
			c-1.951,2.791-2.89,2.945-5.852,1.179c-8.924-5.317-17.761-10.779-26.739-16c-6.565-3.82-13.208-7.504-19.827-11.23l-46.84-27.345
			c-0.675-0.406-1.354-0.8-2.037-1.19l-21.021-12.271c0,0,0.034,0.036,0.087,0.092c-0.956-0.548-1.897-1.119-2.867-1.646
			c-2.962-1.609-4.105-4.007-4.16-7.182c-0.015-0.782-0.116-1.565-0.157-2.348c-0.761-15.593-5.664-29.889-13.18-43.475
			c-10.067-18.191-20.796-35.986-31.798-53.614c-6.953-11.141-14.271-22.054-21.387-33.091c-1.805-2.799-3.459-5.697-5.208-8.532
			c-0.925-1.5-1.945-2.941-2.853-4.45c-4.526-7.51-18.701-9.499-25.503-0.808c-2.052,2.623-4.009,5.328-5.84,8.11
			c-6.792,10.317-13.568,20.643-20.241,31.037c-7.834,12.211-15.695,24.408-23.273,36.776c-4.71,7.682-8.955,15.649-13.334,23.529
			c-5.184,9.329-8.533,19.374-10.739,29.75c-1.054,4.951-1.174,10.106-1.607,15.178c-0.184,2.145-0.109,4.314-0.109,6.472
			c0,1.911-0.782,3.413-2.28,4.547c-0.806,0.611-1.612,1.231-2.446,1.801l-13.233,7.719c-12.696,7.315-25.399,14.621-38.07,21.981
			c-18.471,10.73-36.893,21.537-55.306,32.358c-0.468,0.274-0.915,0.581-1.355,0.902l-9.077,5.293
			c-2.825,1.278-4.123,0.992-5.998-1.601c-1.716-2.375-3.271-4.868-4.866-7.332c-9.884-15.28-19.669-30.625-29.672-45.824
			c-4.732-7.184-10.117-13.94-14.774-21.167c-4.49-6.965-17.211-8.019-22.873-0.312c-5.558,7.567-11.059,15.18-16.45,22.865
			c0,0-36.168,55.344-50.041,82.497c-6.446,11.525-10.131,24.806-10.131,38.951c0,34.046,21.302,63.103,51.298,74.616
			c3.799,1.696,7.821,2.913,11.742,4.342c1.286,0.467,2.647,0.769,3.866,1.366c2.07,1.012,3.315,2.729,3.505,5.074
			c0.111,1.366,0.125,2.743,0.125,4.116c0.014,14.323-0.053,28.644,0.065,42.965c0.035,4.078-0.901,7.699-3.116,11.108
			c-7.686,11.839-15.207,23.785-22.97,35.57c-8.521,12.941-16.726,26.072-24.207,39.646c-3.594,6.521-7.239,13.027-10.555,19.692
			c-3.062,6.151-5.183,12.551-6.434,19.156C243.313,738.35,243.303,738.33,243.303,738.33z M382.222,477.413
			c0,1.235-0.055,2.456-0.136,3.67c0,0.875,0,1.75-0.027,2.625c-0.031,0.969-0.219,1.95-0.456,2.894
			c-0.135,0.542-0.296,1.065-0.441,1.6c-5.02,25.375-27.391,44.511-54.239,44.511c-27.926,0-51.002-20.701-54.755-47.589
			c-0.228-1.086-0.452-2.176-0.637-3.298c-0.562-3.402-0.286-7.074,0.296-10.504c0.115-0.684,0.259-1.359,0.394-2.037
			c1.827-10.115,6.956-19.478,9.95-24.298c0.336-0.462,0.658-0.936,1.007-1.387c4.176-6.767,8.359-13.535,12.783-20.139
			c9.264-13.828,18.489-27.675,27.005-41.985c0.695-1.168,1.493-2.306,2.409-3.308c1.13-1.233,3.075-1.159,4.167,0.12
			c0.755,0.887,1.34,1.92,1.973,2.908c10.046,15.652,20.113,31.295,30.125,46.971c4.183,6.553,8.524,13.022,12.152,19.907
			C379.125,456.579,382.222,466.632,382.222,477.413z M585.019,422.398c2.28,1.076,3.453,3.089,3.957,5.57
			c0.052,0.262,0.085,0.529,0.121,0.795v33.529c-0.458,2.583-1.48,4.936-3.081,7.214c-5.746,8.18-11.326,16.475-17.039,24.68
			c-16.46,23.648-33.145,47.152-46.591,72.732c-0.823,1.561-1.678,3.119-3.706,4.03c-0.87-0.326-2.03-0.579-2.999-1.151
			c-7.753-4.595-15.514-9.176-23.186-13.905c-11.672-7.197-23.173-14.685-34.935-21.73c-14.784-8.858-29.758-17.397-44.65-26.076
			c-1.236-0.721-2.536-1.388-3.193-2.813c0.486-1.431,0.93-2.882,1.341-4.346c0.068-0.244,0.127-0.484,0.191-0.727
			c0.292-1.075,0.557-2.16,0.805-3.25c0.101-0.441,0.208-0.887,0.301-1.326c0.226-1.071,0.423-2.152,0.609-3.237
			c0.128-0.758,0.247-1.512,0.353-2.259c0.031-0.216,0.055-0.434,0.084-0.649c1.796-13.492,0.041-25.215-1.961-33.155
			c-1.251-4.79-2.888-9.423-4.914-13.845c1.148-0.945,2.065-1.857,3.142-2.491c5.825-3.454,38.296-22.258,38.296-22.258l3.963-2.306
			c-0.005-0.001-0.008-0.002-0.013-0.005c16.613-9.369,33.099-18.962,49.38-28.911c6.018-3.676,12.155-7.155,18.306-10.604
			c3.311-1.859,4.02-1.58,5.855,1.931c3.72,7.121,8.415,13.453,14.167,18.907C551.633,409.417,567.339,418.542,585.019,422.398z
			 M661.193,335.408c0,0.048,0.004,0.095,0.004,0.142c0,0.211-0.015,0.419-0.016,0.63c-0.009,3.692-0.316,7.059-1.036,10.294
			c-2.251,11.687-8.043,22.108-16.22,30.109c-4.735,5.019-10.245,8.713-16.443,11.261c-7.228,3.28-15.248,5.123-23.701,5.123
			c-31.711,0-57.418-25.706-57.418-57.417c0-0.413,0.023-0.82,0.031-1.231c-0.378-8.81,1.938-17.171,6.152-24.9
			c4.784-8.768,9.931-17.344,15.114-25.884c10.983-18.09,22.089-36.104,33.154-54.143c1.342-2.187,3.062-2.271,4.627-0.216
			c0.708,0.933,1.291,1.963,1.945,2.943c3.156,4.725,6.361,9.42,9.471,14.18c8.245,12.637,16.676,25.162,24.603,37.998
			c4.84,7.833,9.382,15.833,13.019,24.295c4.198,7.877,6.609,16.847,6.704,26.375c0.004,0.072,0.013,0.147,0.015,0.22
			C661.198,335.262,661.193,335.333,661.193,335.408z M799.103,436.873c3.854,4.312,3.839,4.367,1.661,10.11
			c-0.277,0.734-0.578,1.458-0.859,2.19c-4.153,10.746-6.332,21.728-4.784,33.341c0.829,6.224,2.023,12.343,3.736,18.357
			c0.706,2.482,0.178,4.225-1.893,5.554c-3.952,2.538-7.866,5.15-11.921,7.51c-7.957,4.627-16.069,8.986-23.989,13.672
			c-9.608,5.686-19.057,11.644-28.63,17.388c-6.215,3.729-12.532,7.283-18.803,10.918c-7.457,4.321-14.892,8.687-22.384,12.946
			c-2.938,1.671-4.051,1.359-5.928-1.277c-0.91-1.274-1.726-2.62-2.523-3.969l-46.15-72.603
			c-5.171-7.75-10.016-15.708-14.965-23.608c-0.863-1.383-1.499-2.787-1.893-4.262V426.62c0.39-1.873,1.42-3.264,3.369-4.255
			c26.88-5.918,49.176-24.023,60.814-48.232c1.461-1.659,2.599-1.822,4.779-0.769c-0.004-0.003-0.021-0.021-0.021-0.021l0.108,0.062
			c0.447,0.221,0.922,0.472,1.47,0.791c5,2.913,10.015,5.806,15.029,8.697l93.68,53.871c0,0,0.143,0.121,0.157,0.131v0.001
			C799.145,436.888,799.123,436.88,799.103,436.873z M879.268,532.199c-5.456,0.204-11.828-1.498-18.063-4.021
			c-6.992-2.832-13.19-6.847-18.477-12.22c-4.985-5.066-9.03-10.819-12.081-17.246c-5.226-11.009-6.729-22.334-3.232-34.221
			c2.459-8.349,6.144-16.11,10.756-23.412c12.439-19.703,25.031-39.311,37.576-58.948c0.63-0.988,1.302-1.965,2.072-2.846
			c1.809-2.066,3.435-2.078,5.462-0.017c0.955,0.975,1.824,2.05,2.629,3.156c1.616,2.214,3.281,4.405,4.722,6.733
			c11.017,17.825,22.036,35.647,32.938,53.54c4.086,6.704,7.421,13.806,9.752,21.325c2.983,9.627,2.929,19.274-0.18,28.885
			c-4.008,12.394-11.527,22.242-22.269,29.425C901.784,528.41,891.762,532.187,879.268,532.199z M825.777,758.285
			c0-8.581,1.976-16.697,5.492-23.93c1.78-4.011,3.876-7.865,6.198-11.613c9.602-15.485,19.408-30.845,29.195-46.213
			c3.259-5.122,6.677-10.146,10.094-15.165c2.753-4.044,4.521-4.098,7.557-0.109c1.895,2.491,3.48,5.215,5.271,7.786l13.491,21.268
			v-0.007c1.399,2.223,2.8,4.443,4.198,6.665c6.472,10.281,12.98,20.539,19.425,30.837c4.089,6.537,7.041,13.53,8.201,21.217
			c0.521,3.453,0.62,6.885,0.425,10.318c-0.562,29.771-24.856,53.736-54.76,53.736C850.305,813.075,825.777,788.543,825.777,758.285
			z M802.014,714.579c-1.621-0.801-3.198-1.689-4.773-2.58l-76.666-43.543l0.002,0.003c-1.529-0.916-3.058-1.83-4.599-2.728
			c-1.024-0.596-1.664-1.373-2.018-2.298c0.891-5.653,1.366-11.445,1.366-17.351c0-17.754-4.211-34.517-11.648-49.384
			c0.558-0.345,1.132-0.673,1.701-1.003c17.648-10.189,35.256-20.456,52.963-30.554c17.366-9.902,34.827-19.642,52.267-29.427
			c1.153-0.646,2.444-1.049,3.349-1.432c5.711,4.501,10.951,8.922,16.487,12.932c7.968,5.768,16.378,10.74,26.224,12.751
			c1.9,0.387,3.7,1.255,5.54,1.926c2.481,0.904,3.656,2.841,4.044,5.324c0.15,0.965,0.161,1.955,0.161,2.935
			c0.014,14.908-0.019,29.821,0.04,44.733c0.011,2.844-0.605,5.445-2.099,7.829c-2.287,3.655-4.609,7.286-6.952,10.905
			c-5.006,7.732-10.035,15.449-15.048,23.179c-0.854,1.313-1.65,2.665-2.514,3.974c-4.544,6.869-9.294,13.606-13.601,20.619
			c-5.746,9.354-11.153,18.91-16.696,28.389c-0.593,1.013-1.072,2.097-1.705,3.087C806.075,715.627,804.894,715.999,802.014,714.579
			z M662.896,866.283c-0.948-1.235-1.688-2.636-2.518-3.967c-2.171-3.496-4.29-7.028-6.523-10.481
			c-7.006-10.844-14.041-21.663-21.083-32.48c0.005,0,0.009,0,0.011,0l-7.31-11.789c-0.325-0.679-0.677-1.34-1.116-1.932
			c-3.309-4.468-4.376-9.454-4.346-14.862c0.044-8.59-0.109-17.187,0.018-25.777c0.047-3.174,0.328-6.347,0.596-9.52
			c35.721-5.127,65.912-27.327,82.062-58.07c1.293-0.951,2.688-0.858,4.677,0.199c4.321,2.298,8.632,4.617,12.875,7.058
			c8.663,4.982,17.247,10.1,25.918,15.072c14.275,8.187,28.637,16.23,42.877,24.479c7.201,4.175,6.435,3.62,6.229,11.065
			c-0.298,10.885,1.329,21.451,4.542,31.819c0.39,1.267,0.468,2.63,0.742,4.263c-1.914,1.204-3.682,2.392-5.521,3.455
			c-3.054,1.771-6.174,3.419-9.229,5.186c-18.487,10.689-36.912,21.484-55.461,32.069c-11.906,6.793-24.004,13.259-35.988,19.925
			c-7.362,4.097-14.658,8.311-22.011,12.421c-1.88,1.052-3.852,1.937-5.797,2.863C665.062,867.978,663.796,867.454,662.896,866.283z
			 M550.63,923.614c1.411-5.237,3.554-10.174,6.324-14.683c3.241-5.783,6.63-11.486,9.955-17.224
			c0.001,0.002,0.005,0.012,0.005,0.012l10.576-17.06c-0.001-0.001-0.004-0.001-0.007-0.003c5.68-8.744,11.327-17.511,17.006-26.257
			c2.347-3.618,4.73-7.211,7.181-10.757c1.84-2.661,3.408-2.718,5.541-0.174c1.257,1.492,2.349,3.139,3.4,4.788
			c10.55,16.509,21.158,32.981,31.564,49.579c2.917,4.652,5.682,9.406,8.401,14.185c2.42,3.44,4.464,7.163,6.069,11.112
			c1.779,3.929,2.957,8.078,3.436,12.375c0.443,2.836,0.677,5.739,0.677,8.7c0,30.943-25.085,56.03-56.03,56.03
			c-8.727,0-16.985-1.997-24.349-5.556c-0.692-0.326-1.367-0.682-2.04-1.045c-0.263-0.142-0.523-0.286-0.786-0.432
			c-0.512-0.29-1.028-0.569-1.526-0.879c-15.312-9.152-25.878-25.4-27.179-44.204C548.308,935.828,548.812,929.619,550.63,923.614z
			 M408.122,786.561c2.989-8.648,4.636-17.926,4.636-27.59c0-0.628-0.045-1.245-0.058-1.867c0.082-2.175,0.032-4.366-0.249-6.581
			c-0.394-3.104,1.091-5.175,3.738-6.709c11.865-6.888,23.559-14.087,35.567-20.72c15.611-8.62,31.451-16.823,47.213-25.164
			c1.689-0.896,3.524-1.524,5.45-2.343c1.027,1.295,1.916,2.3,2.683,3.392c1.804,2.577,3.517,5.222,5.318,7.803
			c16.946,25.737,44.342,43.972,76.165,48.647c0.62,0.896,0.928,2.015,0.804,3.439c-0.053,0.581,0.005,1.175,0.005,1.764
			c0.007,11.572-0.044,23.146,0.051,34.718c0.028,3.487-1.01,6.315-3.047,9.216l-38.311,58.745
			c-2.638,4.439-4.297,4.282-9.098,1.545c-0.17-0.1-0.338-0.199-0.506-0.297c-7.13-4.131-14.252-8.272-21.381-12.402l-20.071-11.646
			c-1.116-0.714-2.239-1.426-3.434-1.991l-80.861-46.909c-0.926-0.727-1.847-1.457-2.743-2.219
			C409.034,788.576,408.406,787.628,408.122,786.561z M383.173,685.166c-9.581-15.267-19.355-30.409-29.073-45.587
			c-3.695-5.773-7.461-11.501-11.18-17.26c-1.868-2.89-2.5-6.047-2.478-9.495c0.093-13.919,0.038-27.835,0.038-41.751
			c0-1.178,0.011-2.353,0.024-3.531c0.036-3.149,1.777-5.14,4.56-6.191c0.12-0.045,0.245-0.08,0.365-0.123
			c3.114-0.634,6.16-1.453,9.143-2.417c4.746-1.405,9.259-3.3,13.522-5.703c9.11-4.807,17.244-11.207,24.034-18.836
			c1.429-0.883,2.582-0.821,4.47,0.218c2.745,1.508,5.381,3.214,8.086,4.795c18.415,10.779,36.872,21.494,55.246,32.342
			c10.288,6.071,20.411,12.423,30.678,18.528c4.375,2.599,8.944,4.873,13.402,7.331c0.448,0.25,0.802,0.495,1.107,0.747
			c-6.964,14.479-10.866,30.708-10.866,47.849c0,0.021,0.001,0.042,0.001,0.063c-0.077,2.675,0.024,5.356,0.325,8.039
			c0.123,1.694,0.281,3.378,0.48,5.051c0.017,0.568,0.033,1.135,0.068,1.699c0.137,2.202-0.801,3.775-2.746,4.766l-17.03,9.426
			l-23.576,13.051h0.001l-47.16,26.105c-2.303,1.229-3.417,0.875-4.862-1.382c-0.209-0.327-0.363-0.691-0.563-1.027
			C393.861,702.961,388.686,693.958,383.173,685.166z M271.101,756.785c0.173-2.833-0.029-5.46,0.555-7.897
			c1.462-6.082,3.061-12.176,6.293-17.631c5.287-8.925,10.494-17.906,16.042-26.671c9.219-14.566,18.681-28.978,28.046-43.451
			c0.531-0.822,1.07-1.646,1.676-2.412c1.878-2.37,3.344-2.396,5.123-0.095c0.719,0.928,1.392,1.896,2.031,2.883
			c11.317,17.639,22.658,35.263,33.925,52.932c4.852,7.604,9.268,15.457,12.906,23.726c3.367,7.655,5.235,15.617,4.384,24.005
			c-0.372,3.674-1.081,7.359-2.075,10.917c-2.15,7.666-6.098,14.387-11.522,20.222c-2.42,2.602-5.043,4.848-7.811,6.838
			c-9.456,7.839-21.597,12.553-34.839,12.553c-29.28,0-53.176-23.034-54.566-51.971
			C271.163,759.424,271.094,758.111,271.101,756.785z"/>
	</g>
	<g>
		<radialGradient id="SVGID_5_" cx="596.9668" cy="596.4302" r="0.0942" gradientUnits="userSpaceOnUse">
			<stop  offset="0" style="stop-color:#3E6DC7"/>
			<stop  offset="0.234" style="stop-color:#3F70C8"/>
			<stop  offset="0.3997" style="stop-color:#4279CC"/>
			<stop  offset="0.5443" style="stop-color:#4789D2"/>
			<stop  offset="0.6768" style="stop-color:#4F9FDB"/>
			<stop  offset="0.8011" style="stop-color:#58BBE6"/>
			<stop  offset="0.9176" style="stop-color:#64DEF3"/>
			<stop  offset="1" style="stop-color:#6EFBFF"/>
		</radialGradient>
		<path fill="url(#SVGID_5_)" d="M596.871,596.337c0.047,0.062,0.093,0.124,0.14,0.186c0.017-0.017,0.031-0.034,0.052-0.051
			C597.048,596.462,596.885,596.348,596.871,596.337z"/>
		<g>
			<path fill="#3E6DC7" d="M596.966,1131.545c-2.572,0-5.144-0.666-7.451-1.996L138.999,869.441
				c-4.611-2.662-7.451-7.58-7.451-12.904V336.323c0-5.323,2.84-10.243,7.451-12.906L589.515,63.314
				c4.611-2.663,10.292-2.663,14.902,0l450.516,260.103c4.611,2.663,7.451,7.583,7.451,12.906v520.214
				c0,5.324-2.84,10.242-7.451,12.904l-450.516,260.107C602.113,1130.879,599.54,1131.545,596.966,1131.545z M161.352,847.933
				l435.614,251.502l435.614-251.502V344.929L596.966,93.427L161.352,344.929V847.933z"/>
		</g>
		<radialGradient id="SVGID_6_" cx="596.9653" cy="596.4302" r="0.0624" gradientUnits="userSpaceOnUse">
			<stop  offset="0" style="stop-color:#3E6DC7"/>
			<stop  offset="0.234" style="stop-color:#3F70C8"/>
			<stop  offset="0.3997" style="stop-color:#4279CC"/>
			<stop  offset="0.5443" style="stop-color:#4789D2"/>
			<stop  offset="0.6768" style="stop-color:#4F9FDB"/>
			<stop  offset="0.8011" style="stop-color:#58BBE6"/>
			<stop  offset="0.9176" style="stop-color:#64DEF3"/>
			<stop  offset="1" style="stop-color:#6EFBFF"/>
		</radialGradient>
		<path fill="url(#SVGID_6_)" d="M596.994,596.375c-0.035,0.04-0.064,0.072-0.098,0.109c0.046-0.021,0.094-0.037,0.139-0.057
			C597.021,596.41,597.006,596.395,596.994,596.375z"/>
		<path fill="#4995DC" d="M956.685,731.214c-1.252-6.605-3.373-13.005-6.435-19.156c-3.316-6.665-6.962-13.171-10.555-19.693
			c-7.481-13.572-15.687-26.703-24.207-39.645c-7.764-11.784-15.284-23.731-22.971-35.57c-2.215-3.409-3.152-7.03-3.115-11.108
			c0.118-14.323,0.051-28.643,0.064-42.967c0-1.371,0.015-2.749,0.125-4.114c0.19-2.346,1.435-4.062,3.505-5.075
			c1.219-0.598,2.58-0.899,3.866-1.366c3.92-1.431,7.942-2.646,11.741-4.342c29.996-11.513,51.298-40.57,51.298-74.617
			c0-14.145-3.685-27.425-10.13-38.95c-13.874-27.153-50.041-82.497-50.041-82.497c-5.392-7.685-10.894-15.298-16.45-22.865
			c-5.662-7.708-18.383-6.653-22.874,0.312c-4.656,7.227-10.041,13.982-14.773,21.166c-10.003,15.199-19.788,30.544-29.673,45.824
			c-1.593,2.463-3.149,4.957-4.865,7.332c-1.875,2.592-3.172,2.879-5.997,1.601l-9.077-5.293c-0.44-0.321-0.888-0.628-1.354-0.902
			c-18.414-10.821-36.837-21.628-55.307-32.358c-12.67-7.36-25.375-14.666-38.069-21.982l-13.234-7.718
			c-0.832-0.57-1.639-1.19-2.446-1.801c-1.498-1.135-2.28-2.636-2.28-4.547c0-2.158,0.075-4.327-0.107-6.472
			c-0.434-5.071-0.555-10.227-1.607-15.178c-2.207-10.375-5.556-20.42-10.74-29.75c-4.379-7.88-8.623-15.847-13.333-23.529
			c-7.578-12.368-15.44-24.565-23.275-36.776c-6.672-10.395-13.448-20.72-20.239-31.037c-1.831-2.782-3.79-5.487-5.84-8.11
			c-6.803-8.691-20.976-6.702-25.503,0.808c-0.909,1.508-1.93,2.95-2.854,4.45c-1.748,2.835-3.401,5.731-5.207,8.531
			c-7.117,11.039-14.435,21.951-21.387,33.091c-11.002,17.628-21.732,35.424-31.798,53.615
			c-7.516,13.586-12.419,27.882-13.181,43.475c-0.039,0.783-0.145,1.565-0.156,2.348c-0.054,3.174-1.198,5.573-4.162,7.182
			c-0.967,0.526-1.911,1.098-2.867,1.646c0.054-0.057,0.086-0.092,0.086-0.092l-21.019,12.27c-0.683,0.391-1.362,0.784-2.038,1.19
			l-46.839,27.346c-6.62,3.726-13.262,7.41-19.827,11.23c-8.978,5.222-17.815,10.684-26.739,16c-2.963,1.767-3.901,1.612-5.854-1.18
			c-0.396-0.565-0.774-1.144-1.165-1.713l-2.025-3.123v0.001l-0.883-1.36l-7.266-11.199c-0.024-0.04-0.049-0.079-0.073-0.12
			l-33.475-51.628c-0.303-0.454-0.599-0.911-0.905-1.361c-2.149-3.158-4.872-5.547-8.64-6.708
			c-6.023-1.854-14.517-1.101-19.665,6.395c0.001-0.003,0.005-0.017,0.005-0.017l-0.078,0.128c-0.222,0.328-0.447,0.647-0.655,1
			c-0.239,0.406-0.472,0.816-0.705,1.226l-16.137,26.424c-4.024,6.251-8.055,12.497-11.989,18.802
			c-6.639,10.646-13.128,21.386-19.548,32.164c-1.061,1.782-2.015,3.626-2.94,5.488l-4.827,7.903
			c-2.563,4.842-5.247,9.641-7.44,14.652c-2.989,6.836-4.828,14.117-5.883,21.451c-0.83,5.771-0.517,11.721-0.515,17.592
			c0.005,10.189,2.97,19.686,7.397,28.722c7.688,15.69,19.336,27.845,33.877,37.374c6.795,4.451,14.07,7.597,22.079,9.108
			c5.211,0.983,5.816,1.842,5.984,6.963c0.025,0.782-0.005,1.568-0.005,2.351c-0.006,13.904-0.019,27.807-0.014,41.711
			c0.003,11.151,0.042,11.17-6.485,20.562c-3.759,5.413-7.554,10.802-11.339,16.196l-8.694,13.743c0,0.063-0.013,0.121-0.01,0.187
			c0,0-0.026-0.057-0.026-0.044c-0.043,0.035-0.082,0.075-0.124,0.11L256.9,686.342c-1.101,1.909-2.207,3.814-3.3,5.729
			c-3.5,6.126-7.265,12.137-10.261,18.506c-5.455,11.596-9.165,23.651-9.394,36.722c-0.258,14.818,2.52,28.819,9.139,42.065
			c3.187,6.375,7.772,11.74,12.245,17.212c7.982,9.761,17.693,17.094,29.306,22.038c7.258,3.089,14.731,5.765,22.485,6.577
			c9.511,0.99,19.166,1.251,28.645-1.136c14.437-3.633,27.897-9.14,39.029-19.435c5.912-5.467,5.585-4.518,11.676-1.173
			c14.43,7.926,28.738,16.069,43.092,24.131c9.227,5.183,18.405,10.456,27.68,15.55c17.521,9.619,35.104,19.12,52.637,28.72
			c2.058,1.127,3.999,2.482,5.912,3.849c1.756,1.252,2.411,3.126,2.056,5.189c-0.298,1.725-0.843,3.425-1.419,5.081
			c-1.162,3.334-2.341,6.663-3.65,9.938c-5.492,13.746-5.873,27.921-3.25,42.237c0.875,4.78,2.328,9.542,4.184,14.036
			c4.177,10.112,9.984,18.891,17.083,26.598c5.742,6.61,12.46,12.348,19.951,16.965c4.473,3.001,9.217,5.58,14.328,7.251
			c1.25,0.408,2.502,0.794,3.755,1.169c6.628,2.195,13.61,3.605,20.841,4.131c0.088,0.008,0.177,0.013,0.266,0.02
			c0.746,0.053,1.49,0.106,2.241,0.141c1.183,0.056,2.369,0.086,3.559,0.089c0.089,0,0.176,0.007,0.265,0.007
			c0.279,0,0.554-0.02,0.832-0.021c0.649-0.011,1.297-0.023,1.948-0.05c27.059-0.858,50.967-14.155,66.205-34.367
			c11.253-13.273,18.053-30.443,18.053-49.209c0-4.296-0.396-8.495-1.081-12.598c-0.588-5.146-1.829-10.177-3.531-15.124
			c-1.784-5.178-3.898-10.242-5.797-15.382c-0.388-1.044-0.469-2.202-0.717-3.426c1.624-1.105,3-2.203,4.518-3.059
			c10.579-5.979,21.195-11.887,31.778-17.861c8.022-4.528,16.058-9.043,24.008-13.697c14.887-8.715,29.725-17.503,44.558-26.306
			c2.32-1.378,4.505-2.983,6.753-4.486c-0.034,0.036-0.067,0.072-0.104,0.107c8.481-4.425,16.975-8.856,25.708-13.414
			c0.769,0.348,1.497,0.765,2.213,1.209c15.32,15.647,36.669,25.369,60.299,25.369c2.236,0,4.447-0.112,6.642-0.284
			c45.012-1.477,81.057-38.408,81.057-83.786c0-7.241-0.918-14.269-2.644-20.971C956.696,731.192,956.686,731.212,956.685,731.214z
			 M826.208,440.936c3.629-6.884,7.971-13.354,12.152-19.908c10.011-15.676,20.079-31.318,30.125-46.97
			c0.632-0.988,1.218-2.021,1.973-2.909c1.092-1.279,3.037-1.353,4.167-0.12c0.916,1.001,1.714,2.14,2.409,3.308
			c8.516,14.31,17.74,28.156,27.005,41.985c4.424,6.604,8.606,13.372,12.782,20.139c0.35,0.451,0.672,0.924,1.007,1.387
			c2.995,4.82,8.124,14.184,9.951,24.298c0.135,0.678,0.279,1.353,0.394,2.038c0.583,3.43,0.858,7.103,0.296,10.504
			c-0.185,1.122-0.409,2.211-0.637,3.298c-3.754,26.888-26.828,47.589-54.755,47.589c-26.849,0-49.219-19.136-54.238-44.511
			c-0.146-0.534-0.308-1.057-0.442-1.6c-0.236-0.944-0.425-1.925-0.455-2.895c-0.027-0.874-0.027-1.749-0.027-2.624
			c-0.081-1.215-0.136-2.436-0.136-3.671C817.778,459.493,820.874,449.441,826.208,440.936z M660.375,389.606
			c5.752-5.455,10.447-11.786,14.168-18.907c1.835-3.511,2.544-3.79,5.855-1.931c6.15,3.45,12.288,6.929,18.306,10.604
			c16.28,9.949,32.765,19.542,49.38,28.911c-0.005,0.003-0.009,0.003-0.014,0.005l3.964,2.306c0,0,32.472,18.803,38.296,22.258
			c1.077,0.634,1.995,1.546,3.142,2.491c-2.025,4.422-3.662,9.055-4.914,13.844c-2.002,7.94-3.756,19.664-1.96,33.155
			c0.029,0.216,0.054,0.433,0.084,0.648c0.106,0.748,0.225,1.502,0.353,2.259c0.187,1.085,0.384,2.166,0.609,3.237
			c0.093,0.439,0.201,0.884,0.302,1.326c0.248,1.09,0.514,2.176,0.805,3.25c0.064,0.242,0.123,0.482,0.191,0.727
			c0.411,1.464,0.854,2.914,1.341,4.346c-0.657,1.426-1.956,2.092-3.193,2.813c-14.892,8.678-29.865,17.217-44.649,26.076
			c-11.763,7.045-23.262,14.532-34.936,21.73c-7.672,4.729-15.434,9.309-23.186,13.904c-0.969,0.573-2.13,0.825-3,1.152
			c-2.025-0.913-2.76-2.542-3.704-4.032c-16.166-25.52-29.281-45.447-46.591-72.731c-5.356-8.444-11.294-16.5-17.039-24.68
			c-1.601-2.277-2.623-4.631-3.082-7.213v-33.529c0.037-0.267,0.068-0.534,0.121-0.795c0.504-2.482,1.676-4.495,3.958-5.57
			C632.661,411.404,648.365,402.279,660.375,389.606z M538.802,328.047c0.002-0.072,0.012-0.147,0.014-0.219
			c0.096-9.527,2.507-18.497,6.706-26.375c3.636-8.461,8.178-16.462,13.017-24.295c7.927-12.836,16.357-25.361,24.604-37.998
			c3.108-4.76,6.315-9.455,9.473-14.18c0.654-0.979,1.235-2.01,1.943-2.943c1.565-2.055,3.283-1.971,4.626,0.216
			c11.066,18.038,22.172,36.053,33.155,54.143c5.184,8.54,10.331,17.116,15.114,25.884c4.214,7.729,6.529,16.09,6.151,24.9
			c0.009,0.411,0.03,0.818,0.03,1.231c0,31.711-25.706,57.417-57.415,57.417c-8.454,0-16.475-1.842-23.703-5.123
			c-6.199-2.548-11.709-6.243-16.444-11.261c-8.178-8.001-13.968-18.422-16.22-30.109c-0.719-3.236-1.027-6.602-1.035-10.294
			c-0.002-0.211-0.017-0.419-0.017-0.63c0-0.048,0.002-0.094,0.002-0.142C538.806,328.194,538.801,328.125,538.802,328.047z
			 M400.834,429.759c0.002,0,0.002-0.002,0.002-0.002c0.012-0.01,0.155-0.131,0.155-0.131l93.682-53.871
			c5.014-2.892,10.027-5.785,15.028-8.698c0.547-0.318,1.022-0.57,1.47-0.791l0.106-0.062c0,0-0.015,0.017-0.018,0.021
			c2.181-1.053,3.316-0.891,4.779,0.769c11.637,24.209,33.934,42.314,60.812,48.232c1.952,0.991,2.981,2.382,3.372,4.255v36.522
			c-0.395,1.476-1.031,2.88-1.896,4.262c-4.946,7.899-9.792,15.858-14.963,23.608l-46.15,72.604c-0.8,1.348-1.615,2.693-2.523,3.967
			c-1.877,2.637-2.989,2.949-5.928,1.278c-7.493-4.258-14.927-8.624-22.384-12.945c-6.272-3.635-12.589-7.189-18.804-10.918
			c-9.574-5.744-19.02-11.702-28.628-17.388c-7.92-4.686-16.034-9.045-23.99-13.672c-4.056-2.36-7.968-4.973-11.921-7.51
			c-2.07-1.329-2.599-3.072-1.894-5.555c1.712-6.013,2.908-12.132,3.737-18.356c1.548-11.613-0.632-22.596-4.784-33.341
			c-0.283-0.732-0.582-1.457-0.861-2.19c-2.176-5.743-2.189-5.798,1.661-10.111C400.875,429.742,400.855,429.75,400.834,429.759z
			 M289.128,515.194c-10.742-7.183-18.261-17.031-22.269-29.425c-3.108-9.611-3.165-19.258-0.18-28.885
			c2.33-7.519,5.665-14.622,9.75-21.325c10.903-17.894,21.922-35.716,32.939-53.54c1.439-2.328,3.104-4.52,4.721-6.734
			c0.805-1.106,1.673-2.181,2.63-3.155c2.026-2.061,3.652-2.049,5.46,0.017c0.771,0.88,1.443,1.858,2.074,2.846
			c12.544,19.638,25.135,39.246,37.577,58.948c4.611,7.302,8.297,15.062,10.754,23.412c3.498,11.886,1.993,23.211-3.232,34.221
			c-3.05,6.426-7.094,12.179-12.08,17.246c-5.287,5.373-11.484,9.387-18.479,12.22c-6.234,2.523-12.607,4.225-18.061,4.021
			C308.239,525.049,298.216,521.272,289.128,515.194z M319.436,805.937c-29.905,0-54.197-23.966-54.76-53.735
			c-0.196-3.435-0.097-6.866,0.425-10.319c1.16-7.686,4.112-14.68,8.201-21.216c6.442-10.298,12.952-20.556,19.424-30.837
			c1.399-2.222,2.8-4.442,4.199-6.665l-0.001,0.007l13.492-21.268c1.791-2.571,3.376-5.296,5.271-7.787
			c3.037-3.987,4.804-3.935,7.556,0.11c3.417,5.018,6.834,10.043,10.096,15.165c9.785,15.368,19.591,30.728,29.192,46.213
			c2.323,3.748,4.419,7.602,6.198,11.613c3.517,7.231,5.494,15.35,5.494,23.931C374.223,781.406,349.695,805.937,319.436,805.937z
			 M392.161,705.728c-0.631-0.989-1.111-2.073-1.706-3.087c-5.543-9.479-10.95-19.035-16.696-28.389
			c-4.306-7.012-9.057-13.749-13.599-20.618c-0.865-1.309-1.661-2.661-2.514-3.974c-5.013-7.73-10.043-15.447-15.049-23.179
			c-2.343-3.619-4.666-7.25-6.953-10.906c-1.492-2.383-2.109-4.985-2.097-7.829c0.056-14.91,0.027-29.822,0.039-44.733
			c0.001-0.979,0.01-1.969,0.161-2.933c0.389-2.483,1.563-4.42,4.045-5.325c1.839-0.671,3.641-1.539,5.54-1.926
			c9.844-2.012,18.255-6.984,26.224-12.751c5.537-4.01,10.776-8.431,16.486-12.932c0.904,0.382,2.197,0.786,3.351,1.432
			c17.438,9.785,34.899,19.524,52.267,29.427c17.705,10.098,35.312,20.362,52.961,30.554c0.57,0.329,1.143,0.655,1.702,1.002
			c-7.271,18.544-11.648,31.63-11.648,49.384c0,5.905,0.475,11.697,1.366,17.351c-0.353,0.925-0.993,1.702-2.019,2.298
			c-1.54,0.897-3.068,1.812-4.597,2.728l0.001-0.004l-76.665,43.544c-1.576,0.891-3.153,1.779-4.773,2.58
			C395.107,708.861,393.926,708.489,392.161,705.728z M533.459,860.14c-1.945-0.926-3.917-1.811-5.794-2.861
			c-7.354-4.111-14.649-8.325-22.013-12.422c-11.984-6.665-24.082-13.132-35.989-19.926c-18.547-10.584-36.972-21.378-55.46-32.069
			c-3.055-1.765-6.175-3.414-9.228-5.184c-1.841-1.065-3.607-2.252-5.522-3.457c0.276-1.632,0.353-2.996,0.746-4.262
			c3.212-10.369,4.838-20.936,4.539-31.819c-0.206-7.446-0.973-6.892,6.23-11.065c14.241-8.249,28.6-16.292,42.878-24.479
			c8.67-4.973,17.254-10.09,25.916-15.072c4.243-2.439,8.553-4.76,12.876-7.058c1.989-1.058,3.382-1.15,4.677-0.2
			c16.149,30.744,46.339,52.945,82.06,58.07c0.268,3.173,0.549,6.346,0.598,9.52c0.125,8.593-0.029,17.188,0.017,25.777
			c0.029,5.408-1.037,10.396-4.347,14.863c-0.439,0.593-0.788,1.253-1.115,1.931l-7.312,11.79c0.005,0,0.008,0,0.013,0
			c-7.042,10.817-14.077,21.638-21.083,32.479c-2.233,3.453-4.352,6.985-6.525,10.481c-0.827,1.331-1.567,2.731-2.517,3.968
			C536.204,860.316,534.936,860.841,533.459,860.14z M651.15,934.986c-1.302,18.803-11.867,35.051-27.178,44.205
			c-0.498,0.31-1.016,0.589-1.527,0.877c-0.262,0.146-0.522,0.292-0.786,0.432c-0.673,0.363-1.347,0.72-2.039,1.045
			c-7.363,3.56-15.623,5.556-24.348,5.556c-30.946,0-56.031-25.086-56.031-56.03c0-2.96,0.233-5.864,0.675-8.699
			c0.48-4.297,1.658-8.447,3.438-12.375c1.606-3.95,3.649-7.671,6.068-11.113c2.718-4.778,5.482-9.53,8.4-14.185
			c10.408-16.597,21.016-33.068,31.564-49.579c1.054-1.648,2.146-3.296,3.401-4.786c2.133-2.545,3.701-2.488,5.541,0.173
			c2.451,3.545,4.836,7.14,7.184,10.757c5.679,8.747,11.324,17.514,17.006,26.257c-0.004,0.001-0.006,0.001-0.008,0.003
			l10.577,17.059c0,0,0.002-0.01,0.005-0.011c3.325,5.737,6.712,11.439,9.953,17.224c2.771,4.51,4.914,9.446,6.325,14.683
			C651.188,922.48,651.692,928.691,651.15,934.986z M790.007,782.253c-0.896,0.763-1.817,1.493-2.742,2.219l-80.861,46.909
			c-1.195,0.566-2.318,1.277-3.435,1.992l-20.07,11.646c-7.13,4.128-14.253,8.271-21.381,12.402
			c-0.171,0.098-0.338,0.196-0.507,0.296c-4.802,2.736-6.46,2.895-9.099-1.544l-38.31-58.746c-2.038-2.9-3.075-5.729-3.047-9.217
			c0.095-11.571,0.043-23.146,0.051-34.718c0-0.589,0.058-1.181,0.005-1.764c-0.125-1.424,0.183-2.544,0.803-3.438
			c31.822-4.677,59.22-22.91,76.166-48.647c1.802-2.581,3.513-5.226,5.318-7.803c0.767-1.093,1.655-2.097,2.683-3.392
			c1.926,0.818,3.759,1.447,5.449,2.343c15.762,8.341,31.602,16.544,47.213,25.164c12.009,6.633,23.702,13.832,35.566,20.72
			c2.647,1.534,4.133,3.605,3.738,6.708c-0.281,2.215-0.33,4.406-0.248,6.581c-0.014,0.624-0.059,1.239-0.059,1.868
			c0,9.665,1.647,18.94,4.637,27.589C791.594,780.489,790.965,781.439,790.007,782.253z M800.81,704.736
			c-0.199,0.336-0.354,0.7-0.562,1.027c-1.444,2.257-2.56,2.611-4.862,1.382l-47.16-26.106h0.002l-23.576-13.05l-17.03-9.426
			c-1.944-0.99-2.883-2.563-2.746-4.765c0.036-0.565,0.051-1.133,0.069-1.701c0.197-1.673,0.355-3.355,0.479-5.051
			c0.302-2.682,0.402-5.363,0.326-8.038c0-0.021,0.001-0.042,0.001-0.063c0-17.141-3.904-33.37-10.866-47.85
			c0.305-0.252,0.659-0.497,1.107-0.745c4.456-2.459,9.026-4.733,13.4-7.333c10.268-6.105,20.392-12.456,30.679-18.529
			c18.374-10.848,36.831-21.562,55.247-32.342c2.704-1.582,5.341-3.287,8.086-4.795c1.888-1.04,3.04-1.101,4.47-0.218
			c6.79,7.63,14.925,14.03,24.034,18.836c4.264,2.403,8.776,4.298,13.522,5.703c2.981,0.964,6.027,1.783,9.144,2.417
			c0.119,0.043,0.243,0.077,0.364,0.123c2.781,1.051,4.523,3.041,4.559,6.192c0.015,1.178,0.024,2.352,0.024,3.529
			c0,13.916-0.055,27.833,0.038,41.752c0.021,3.448-0.61,6.605-2.479,9.495c-3.719,5.758-7.485,11.486-11.18,17.26
			c-9.718,15.178-19.491,30.319-29.073,45.586C811.313,686.819,806.138,695.823,800.81,704.736z M928.731,753.595
			c-1.391,28.937-25.286,51.969-54.567,51.969c-13.243,0-25.383-4.713-34.839-12.551c-2.768-1.992-5.39-4.238-7.812-6.838
			c-5.424-5.835-9.372-12.558-11.521-20.222c-0.995-3.559-1.703-7.244-2.075-10.919c-0.851-8.388,1.017-16.349,4.385-24.004
			c3.639-8.269,8.055-16.122,12.905-23.726c11.268-17.669,22.608-35.293,33.926-52.932c0.639-0.987,1.312-1.955,2.029-2.883
			c1.78-2.301,3.245-2.275,5.123,0.094c0.607,0.768,1.146,1.591,1.678,2.413c9.364,14.474,18.827,28.885,28.044,43.451
			c5.55,8.765,10.756,17.746,16.043,26.671c3.233,5.455,4.832,11.548,6.294,17.631c0.584,2.438,0.381,5.065,0.555,7.896
			C928.905,750.973,928.837,752.287,928.731,753.595z"/>
	</g>
	<path fill="#5FBE9E" d="M534.135,733.601c-21.939-14.671-37.297-34.786-45.479-60.098c-6.352-19.629-7.112-40.738-1.02-60.399
		c4.761-15.358,11.574-29.864,19.916-43.555c22.268-36.547,45.423-71.54,67.921-107.944c2.944-4.754,6.343-9.232,9.644-13.753
		c1.643-2.259,3.421-4.455,5.372-6.444c4.14-4.211,7.463-4.186,11.154,0.035c1.576,1.797,2.945,3.794,4.23,5.812
		c25.625,40.109,51.342,80.153,76.75,120.395c9.418,14.914,16.943,30.769,21.966,47.818c7.142,24.275,4.071,47.41-6.602,69.894
		c-6.232,13.123-14.492,24.878-24.675,35.219c-10.797,10.972-23.455,19.178-37.735,24.961c-12.736,5.153-25.752,8.631-36.892,8.212
		C573.165,753.729,552.696,746.013,534.135,733.601z"/>
	<g opacity="0.5">
		<linearGradient id="SVGID_7_" gradientUnits="userSpaceOnUse" x1="483.1235" y1="596.04" x2="708.4541" y2="596.04">
			<stop  offset="0" style="stop-color:#FFFFFF"/>
			<stop  offset="1" style="stop-color:#FFFFFF;stop-opacity:0"/>
		</linearGradient>
		<path fill="url(#SVGID_7_)" d="M596.087,445.754c0.087,0.091,0.181,0.195,0.283,0.311c1.397,1.593,2.652,3.485,3.593,4.963
			c6.014,9.414,12.032,18.825,18.051,28.235c19.294,30.166,39.244,61.358,58.68,92.142c9.586,15.183,16.511,30.249,21.167,46.058
			c6.334,21.534,4.304,42.768-6.208,64.914c-5.849,12.315-13.7,23.523-23.339,33.313c-9.83,9.99-21.729,17.857-35.367,23.382
			c-12.681,5.131-23.585,7.732-32.408,7.732c-0.536,0-1.07-0.01-1.587-0.029c-0.086-0.004-0.173-0.005-0.26-0.005
			c-22.062-0.019-41.336-6.045-60.657-18.969c-20.711-13.849-35.079-32.835-42.705-56.433c-6.373-19.698-6.903-38.405-1.577-55.601
			c4.381-14.133,10.843-28.26,19.208-41.988c12.018-19.727,24.696-39.526,36.957-58.672c10.413-16.261,21.18-33.076,31.521-49.811
			c2.312-3.736,4.927-7.294,7.696-11.062c0.55-0.749,1.101-1.499,1.658-2.261c1.623-2.232,3.162-4.083,4.7-5.652
			C595.717,446.093,595.916,445.905,596.087,445.754 M596.215,438.262c-1.804,0-3.664,1.046-5.726,3.145
			c-1.95,1.99-3.729,4.186-5.372,6.445c-3.301,4.521-6.7,8.999-9.644,13.754c-22.498,36.408-46.237,71.975-68.504,108.526
			c-8.343,13.693-15.156,28.2-19.917,43.56c-6.091,19.665-4.748,40.203,1.604,59.836c8.181,25.315,23.539,45.433,45.479,60.104
			c18.562,12.415,39.03,20.131,64.55,20.151c0.613,0.023,1.229,0.034,1.853,0.034c10.716,0,23.003-3.374,35.039-8.244
			c14.28-5.785,26.938-13.991,37.735-24.964c10.183-10.343,18.442-22.1,24.675-35.225c10.673-22.485,13.743-45.621,6.602-69.9
			c-5.022-17.05-12.548-32.908-21.966-47.823c-25.408-40.245-51.125-80.294-76.75-120.408c-1.285-2.017-2.654-4.014-4.23-5.812
			C599.791,439.324,598.031,438.262,596.215,438.262L596.215,438.262z"/>
	</g>
	<linearGradient id="SVGID_8_" gradientUnits="userSpaceOnUse" x1="230.4229" y1="596.4316" x2="963.5088" y2="596.4316">
		<stop  offset="0" style="stop-color:#FFFFFF"/>
		<stop  offset="1" style="stop-color:#FFFFFF;stop-opacity:0"/>
	</linearGradient>
	
		<path opacity="0.2" fill="none" stroke="url(#SVGID_8_)" stroke-width="7.0127" stroke-linecap="round" stroke-linejoin="round" stroke-miterlimit="10" d="
		M956.685,731.214c-1.252-6.605-3.373-13.005-6.435-19.156c-3.316-6.665-6.962-13.171-10.555-19.693
		c-7.481-13.572-15.687-26.703-24.207-39.645c-7.764-11.784-15.284-23.731-22.971-35.57c-2.215-3.409-3.152-7.03-3.115-11.108
		c0.118-14.323,0.051-28.643,0.064-42.967c0-1.371,0.015-2.749,0.125-4.114c0.19-2.346,1.435-4.062,3.505-5.075
		c1.219-0.598,2.58-0.899,3.866-1.366c3.92-1.431,7.942-2.646,11.741-4.342c29.996-11.513,51.298-40.57,51.298-74.617
		c0-14.145-3.685-27.425-10.13-38.95c-13.874-27.153-50.041-82.497-50.041-82.497c-5.392-7.685-10.894-15.298-16.45-22.865
		c-5.662-7.708-18.383-6.653-22.874,0.312c-4.656,7.227-10.041,13.982-14.773,21.166c-10.003,15.199-19.788,30.544-29.673,45.824
		c-1.593,2.463-3.149,4.957-4.865,7.332c-1.875,2.592-3.172,2.879-5.997,1.601l-9.077-5.293c-0.44-0.321-0.888-0.628-1.354-0.902
		c-18.414-10.821-36.837-21.628-55.307-32.358c-12.67-7.36-25.375-14.666-38.069-21.982l-13.234-7.718
		c-0.832-0.57-1.639-1.19-2.446-1.801c-1.498-1.135-2.28-2.636-2.28-4.547c0-2.158,0.075-4.327-0.107-6.472
		c-0.434-5.071-0.555-10.227-1.607-15.178c-2.207-10.375-5.556-20.42-10.74-29.75c-4.379-7.88-8.623-15.847-13.333-23.529
		c-7.578-12.368-15.44-24.565-23.275-36.776c-6.672-10.395-13.448-20.72-20.239-31.037c-1.831-2.782-3.79-5.487-5.84-8.11
		c-6.803-8.691-20.976-6.702-25.503,0.808c-0.909,1.508-1.93,2.95-2.854,4.45c-1.748,2.835-3.401,5.731-5.207,8.531
		c-7.117,11.039-14.435,21.951-21.387,33.091c-11.002,17.628-21.732,35.424-31.798,53.615
		c-7.516,13.586-12.419,27.882-13.181,43.475c-0.039,0.783-0.145,1.565-0.156,2.348c-0.054,3.174-1.198,5.573-4.162,7.182
		c-0.967,0.526-1.911,1.098-2.867,1.646c0.054-0.057,0.086-0.092,0.086-0.092l-21.019,12.27c-0.683,0.391-1.362,0.784-2.038,1.19
		l-46.839,27.346c-6.62,3.726-13.262,7.41-19.827,11.23c-8.978,5.222-17.815,10.684-26.739,16c-2.963,1.767-3.901,1.612-5.854-1.18
		c-0.396-0.565-0.774-1.144-1.165-1.713l-2.025-3.123v0.001l-0.883-1.36l-7.266-11.199c-0.024-0.04-0.049-0.079-0.073-0.12
		l-33.475-51.628c-0.303-0.454-0.599-0.911-0.905-1.361c-2.149-3.158-4.872-5.547-8.64-6.708
		c-6.023-1.854-14.517-1.101-19.665,6.395c0.001-0.003,0.005-0.017,0.005-0.017l-0.078,0.128c-0.222,0.328-0.447,0.647-0.655,1
		c-0.239,0.406-0.472,0.816-0.705,1.226l-16.137,26.424c-4.024,6.251-8.055,12.497-11.989,18.802
		c-6.639,10.646-13.128,21.386-19.548,32.164c-1.061,1.782-2.015,3.626-2.94,5.488l-4.827,7.903
		c-2.563,4.842-5.247,9.641-7.44,14.652c-2.989,6.836-4.828,14.117-5.883,21.451c-0.83,5.771-0.517,11.721-0.515,17.592
		c0.005,10.189,2.97,19.686,7.397,28.722c7.688,15.69,19.336,27.845,33.877,37.374c6.795,4.451,14.07,7.597,22.079,9.108
		c5.211,0.983,5.816,1.842,5.984,6.963c0.025,0.782-0.005,1.568-0.005,2.351c-0.006,13.904-0.019,27.807-0.014,41.711
		c0.003,11.151,0.042,11.17-6.485,20.562c-3.759,5.413-7.554,10.802-11.339,16.196l-8.694,13.743c0,0.063-0.013,0.121-0.01,0.187
		c0,0-0.026-0.057-0.026-0.044c-0.043,0.035-0.082,0.075-0.124,0.11L256.9,686.342c-1.101,1.909-2.207,3.814-3.3,5.729
		c-3.5,6.126-7.265,12.137-10.261,18.506c-5.455,11.596-9.165,23.651-9.394,36.722c-0.258,14.818,2.52,28.819,9.139,42.065
		c3.187,6.375,7.772,11.74,12.245,17.212c7.982,9.761,17.693,17.094,29.306,22.038c7.258,3.089,14.731,5.765,22.485,6.577
		c9.511,0.99,19.166,1.251,28.645-1.136c14.437-3.633,27.897-9.14,39.029-19.435c5.912-5.467,5.585-4.518,11.676-1.173
		c14.43,7.926,28.738,16.069,43.092,24.131c9.227,5.183,18.405,10.456,27.68,15.55c17.521,9.619,35.104,19.12,52.637,28.72
		c2.058,1.127,3.999,2.482,5.912,3.849c1.756,1.252,2.411,3.126,2.056,5.189c-0.298,1.725-0.843,3.425-1.419,5.081
		c-1.162,3.334-2.341,6.663-3.65,9.938c-5.492,13.746-5.873,27.921-3.25,42.237c0.875,4.78,2.328,9.542,4.184,14.036
		c4.177,10.112,9.984,18.891,17.083,26.598c5.742,6.61,12.46,12.348,19.951,16.965c4.473,3.001,9.217,5.58,14.328,7.251
		c1.25,0.408,2.502,0.794,3.755,1.169c6.628,2.195,13.61,3.605,20.841,4.131c0.088,0.008,0.177,0.013,0.266,0.02
		c0.746,0.053,1.49,0.106,2.241,0.141c1.183,0.056,2.369,0.086,3.559,0.089c0.089,0,0.176,0.007,0.265,0.007
		c0.279,0,0.554-0.02,0.832-0.021c0.649-0.011,1.297-0.023,1.948-0.05c27.059-0.858,50.967-14.155,66.205-34.367
		c11.253-13.273,18.053-30.443,18.053-49.209c0-4.296-0.396-8.495-1.081-12.598c-0.588-5.146-1.829-10.177-3.531-15.124
		c-1.784-5.178-3.898-10.242-5.797-15.382c-0.388-1.044-0.469-2.202-0.717-3.426c1.624-1.105,3-2.203,4.518-3.059
		c10.579-5.979,21.195-11.887,31.778-17.861c8.022-4.528,16.058-9.043,24.008-13.697c14.887-8.715,29.725-17.503,44.558-26.306
		c2.32-1.378,4.505-2.983,6.753-4.486c-0.034,0.036-0.067,0.072-0.104,0.107c8.481-4.425,16.975-8.856,25.708-13.414
		c0.769,0.348,1.497,0.765,2.213,1.209c15.32,15.647,36.669,25.369,60.299,25.369c2.236,0,4.447-0.112,6.642-0.284
		c45.012-1.477,81.057-38.408,81.057-83.786c0-7.241-0.918-14.269-2.644-20.971C956.696,731.192,956.686,731.212,956.685,731.214z
		 M826.208,440.936c3.629-6.884,7.971-13.354,12.152-19.908c10.011-15.676,20.079-31.318,30.125-46.97
		c0.632-0.988,1.218-2.021,1.973-2.909c1.092-1.279,3.037-1.353,4.167-0.12c0.916,1.001,1.714,2.14,2.409,3.308
		c8.516,14.31,17.74,28.156,27.005,41.985c4.424,6.604,8.606,13.372,12.782,20.139c0.35,0.451,0.672,0.924,1.007,1.387
		c2.995,4.82,8.124,14.184,9.951,24.298c0.135,0.678,0.279,1.353,0.394,2.038c0.583,3.43,0.858,7.103,0.296,10.504
		c-0.185,1.122-0.409,2.211-0.637,3.298c-3.754,26.888-26.828,47.589-54.755,47.589c-26.849,0-49.219-19.136-54.238-44.511
		c-0.146-0.534-0.308-1.057-0.442-1.6c-0.236-0.944-0.425-1.925-0.455-2.895c-0.027-0.874-0.027-1.749-0.027-2.624
		c-0.081-1.215-0.136-2.436-0.136-3.671C817.778,459.493,820.874,449.441,826.208,440.936z M660.375,389.606
		c5.752-5.455,10.447-11.786,14.168-18.907c1.835-3.511,2.544-3.79,5.855-1.931c6.15,3.45,12.288,6.929,18.306,10.604
		c16.28,9.949,32.765,19.542,49.38,28.911c-0.005,0.003-0.009,0.003-0.014,0.005l3.964,2.306c0,0,32.472,18.803,38.296,22.258
		c1.077,0.634,1.995,1.546,3.142,2.491c-2.025,4.422-3.662,9.055-4.914,13.844c-2.002,7.94-3.756,19.664-1.96,33.155
		c0.029,0.216,0.054,0.433,0.084,0.648c0.106,0.748,0.225,1.502,0.353,2.259c0.187,1.085,0.384,2.166,0.609,3.237
		c0.093,0.439,0.201,0.884,0.302,1.326c0.248,1.09,0.514,2.176,0.805,3.25c0.064,0.242,0.123,0.482,0.191,0.727
		c0.411,1.464,0.854,2.914,1.341,4.346c-0.657,1.426-1.956,2.092-3.193,2.813c-14.892,8.678-29.865,17.217-44.649,26.076
		c-11.763,7.045-23.262,14.532-34.936,21.73c-7.672,4.729-15.434,9.309-23.186,13.904c-0.969,0.573-2.13,0.825-3,1.152
		c-2.025-0.913-2.883-2.47-3.704-4.032c-13.447-25.579-30.131-49.083-46.591-72.731c-5.715-8.206-11.294-16.5-17.039-24.68
		c-1.601-2.277-2.623-4.631-3.082-7.213v-33.529c0.037-0.267,0.068-0.534,0.121-0.795c0.504-2.482,1.676-4.495,3.958-5.57
		C632.661,411.404,648.365,402.279,660.375,389.606z M538.802,328.047c0.002-0.072,0.012-0.147,0.014-0.219
		c0.096-9.527,2.507-18.497,6.706-26.375c3.636-8.461,8.178-16.462,13.017-24.295c7.927-12.836,16.357-25.361,24.604-37.998
		c3.108-4.76,6.315-9.455,9.473-14.18c0.654-0.979,1.235-2.01,1.943-2.943c1.565-2.055,3.283-1.971,4.626,0.216
		c11.066,18.038,22.172,36.053,33.155,54.143c5.184,8.54,10.331,17.116,15.114,25.884c4.214,7.729,6.529,16.09,6.151,24.9
		c0.009,0.411,0.03,0.818,0.03,1.231c0,31.711-25.706,57.417-57.415,57.417c-8.454,0-16.475-1.842-23.703-5.123
		c-6.199-2.548-11.709-6.243-16.444-11.261c-8.178-8.001-13.968-18.422-16.22-30.109c-0.719-3.236-1.027-6.602-1.035-10.294
		c-0.002-0.211-0.017-0.419-0.017-0.63c0-0.048,0.002-0.094,0.002-0.142C538.806,328.194,538.801,328.125,538.802,328.047z
		 M400.834,429.759c0.002,0,0.002-0.002,0.002-0.002c0.012-0.01,0.155-0.131,0.155-0.131l93.682-53.871
		c5.014-2.892,10.027-5.785,15.028-8.698c0.547-0.318,1.022-0.57,1.47-0.791l0.106-0.062c0,0-0.015,0.017-0.018,0.021
		c2.181-1.053,3.316-0.891,4.779,0.769c11.637,24.209,33.934,42.314,60.812,48.232c1.952,0.991,2.981,2.382,3.372,4.255v36.522
		c-0.395,1.476-1.031,2.88-1.896,4.262c-4.946,7.899-9.792,15.858-14.963,23.608l-46.15,72.604c-0.8,1.348-1.615,2.693-2.523,3.967
		c-1.877,2.637-2.989,2.949-5.928,1.278c-7.493-4.258-14.927-8.624-22.384-12.945c-6.272-3.635-12.589-7.189-18.804-10.918
		c-9.574-5.744-19.02-11.702-28.628-17.388c-7.92-4.686-16.034-9.045-23.99-13.672c-4.056-2.36-7.968-4.973-11.921-7.51
		c-2.07-1.329-2.599-3.072-1.894-5.555c1.712-6.013,2.908-12.132,3.737-18.356c1.548-11.613-0.632-22.596-4.784-33.341
		c-0.283-0.732-0.582-1.457-0.861-2.19c-2.176-5.743-2.189-5.798,1.661-10.111C400.875,429.742,400.855,429.75,400.834,429.759z
		 M289.128,515.194c-10.742-7.183-18.261-17.031-22.269-29.425c-3.108-9.611-3.165-19.258-0.18-28.885
		c2.33-7.519,5.665-14.622,9.75-21.325c10.903-17.894,21.922-35.716,32.939-53.54c1.439-2.328,3.104-4.52,4.721-6.734
		c0.805-1.106,1.673-2.181,2.63-3.155c2.026-2.061,3.652-2.049,5.46,0.017c0.771,0.88,1.443,1.858,2.074,2.846
		c12.544,19.638,25.135,39.246,37.577,58.948c4.611,7.302,8.297,15.062,10.754,23.412c3.498,11.886,1.993,23.211-3.232,34.221
		c-3.05,6.426-7.094,12.179-12.08,17.246c-5.287,5.373-11.484,9.387-18.479,12.22c-6.234,2.523-12.607,4.225-18.061,4.021
		C308.239,525.049,298.216,521.272,289.128,515.194z M319.436,805.937c-29.905,0-54.197-23.966-54.76-53.735
		c-0.196-3.435-0.097-6.866,0.425-10.319c1.16-7.686,4.112-14.68,8.201-21.216c6.442-10.298,12.952-20.556,19.424-30.837
		c1.399-2.222,2.8-4.442,4.199-6.665l-0.001,0.007l13.492-21.268c1.791-2.571,3.376-5.296,5.271-7.787
		c3.037-3.987,4.804-3.935,7.556,0.11c3.417,5.018,6.834,10.043,10.096,15.165c9.785,15.368,19.591,30.728,29.192,46.213
		c2.323,3.748,4.419,7.602,6.198,11.613c3.517,7.231,5.494,15.35,5.494,23.931C374.223,781.406,349.695,805.937,319.436,805.937z
		 M484.021,658.594c-1.54,0.897-3.068,1.812-4.597,2.728l0.001-0.004l-76.665,43.544c-1.576,0.891-3.153,1.779-4.773,2.58
		c-2.88,1.42-4.061,1.048-5.826-1.714c-0.631-0.989-1.111-2.073-1.706-3.087c-5.543-9.479-10.95-19.035-16.696-28.389
		c-4.306-7.012-9.057-13.749-13.599-20.618c-0.865-1.309-1.661-2.661-2.514-3.974c-5.013-7.73-10.043-15.447-15.049-23.179
		c-2.343-3.619-4.666-7.25-6.953-10.906c-1.492-2.383-2.109-4.985-2.097-7.829c0.056-14.91,0.027-29.822,0.039-44.733
		c0.001-0.979,0.01-1.969,0.161-2.933c0.389-2.483,1.563-4.42,4.045-5.325c1.839-0.671,3.641-1.539,5.54-1.926
		c9.844-2.012,18.255-6.984,26.224-12.751c5.537-4.01,10.776-8.431,16.486-12.932c0.904,0.382,2.197,0.786,3.351,1.432
		c17.438,9.785,34.899,19.524,52.267,29.427c17.705,10.098,35.312,20.362,52.961,30.554c0.57,0.329,1.143,0.655,1.702,1.002
		 M579.973,752.266c0.125,8.591-0.029,22.778,0.017,31.367c0.029,5.408-1.037,10.396-4.347,14.863
		c-0.439,0.593-0.788,1.253-1.115,1.931l-7.312,11.79c0.005,0,0.008,0,0.013,0c-7.042,10.817-14.077,21.638-21.083,32.479
		c-2.233,3.453-4.352,6.985-6.525,10.481c-0.827,1.331-1.567,2.731-2.517,3.968c-0.899,1.171-2.167,1.695-3.644,0.994
		c-1.945-0.926-3.917-1.811-5.794-2.861c-7.354-4.111-14.649-8.325-22.013-12.422c-11.984-6.665-24.082-13.132-35.989-19.926
		c-18.547-10.584-36.972-21.378-55.46-32.069c-3.055-1.765-6.175-3.414-9.228-5.184c-1.841-1.065-3.607-2.252-5.522-3.457
		c0.276-1.632,0.353-2.996,0.746-4.262c3.212-10.369,4.838-20.936,4.539-31.819c-0.206-7.446-0.973-6.892,6.23-11.065
		c14.241-8.249,28.6-16.292,42.878-24.479c8.67-4.973,17.254-10.09,25.916-15.072c4.243-2.439,8.553-4.76,12.876-7.058
		 M651.15,934.986c-1.302,18.803-11.867,35.051-27.178,44.205c-0.498,0.31-1.016,0.589-1.527,0.877
		c-0.262,0.146-0.522,0.292-0.786,0.432c-0.673,0.363-1.347,0.72-2.039,1.045c-7.363,3.56-15.623,5.556-24.348,5.556
		c-30.946,0-56.031-25.086-56.031-56.03c0-2.96,0.233-5.864,0.675-8.699c0.48-4.297,1.658-8.447,3.438-12.375
		c1.606-3.95,3.649-7.671,6.068-11.113c2.718-4.778,5.482-9.53,8.4-14.185c10.408-16.597,21.016-33.068,31.564-49.579
		c1.054-1.648,2.146-3.296,3.401-4.786c2.133-2.545,3.701-2.488,5.541,0.173c2.451,3.545,4.836,7.14,7.184,10.757
		c5.679,8.747,11.324,17.514,17.006,26.257c-0.004,0.001-0.006,0.001-0.008,0.003l10.577,17.059c0,0,0.002-0.01,0.005-0.011
		c3.325,5.737,6.712,11.439,9.953,17.224c2.771,4.51,4.914,9.446,6.325,14.683C651.188,922.48,651.692,928.691,651.15,934.986z
		 M695.581,688.449c1.926,0.818,3.759,1.447,5.449,2.343c15.762,8.341,31.602,16.544,47.213,25.164
		c12.009,6.633,23.702,13.832,35.566,20.72c2.647,1.534,4.133,3.605,3.738,6.708c-0.281,2.215-0.33,4.406-0.248,6.581
		c-0.014,0.624-0.059,1.239-0.059,1.868c0,9.665,1.647,18.94,4.637,27.589c-0.284,1.067-0.913,2.018-1.871,2.831
		c-0.896,0.763-1.817,1.493-2.742,2.219l-80.861,46.909c-1.195,0.566-2.318,1.277-3.435,1.992l-20.07,11.646
		c-7.13,4.128-14.253,8.271-21.381,12.402c-0.171,0.098-0.338,0.196-0.507,0.296c-4.802,2.736-6.46,2.895-9.099-1.544l-38.31-58.746
		c-2.038-2.9-3.075-5.729-3.047-9.217c0.095-11.571,0.043-23.146,0.051-34.718 M695.99,590.35c4.456-2.459,9.026-4.733,13.4-7.333
		c10.268-6.105,20.392-12.456,30.679-18.529c18.374-10.848,36.831-21.562,55.247-32.342c2.704-1.582,5.341-3.287,8.086-4.795
		c1.888-1.04,3.04-1.101,4.47-0.218c6.79,7.63,14.925,14.03,24.034,18.836c4.264,2.403,8.776,4.298,13.522,5.703
		c2.981,0.964,6.027,1.783,9.144,2.417c0.119,0.043,0.243,0.077,0.364,0.123c2.781,1.051,4.523,3.041,4.559,6.192
		c0.015,1.178,0.024,2.352,0.024,3.529c0,13.916-0.055,27.833,0.038,41.752c0.021,3.448-0.61,6.605-2.479,9.495
		c-3.719,5.758-7.485,11.486-11.18,17.26c-9.718,15.178-19.491,30.319-29.073,45.586c-5.513,8.792-10.688,17.796-16.017,26.709
		c-0.199,0.336-0.354,0.7-0.562,1.027c-1.444,2.257-2.56,2.611-4.862,1.382l-47.16-26.106h0.002l-23.576-13.05l-17.03-9.426
		 M928.731,753.595c-1.391,28.937-25.286,51.969-54.567,51.969c-13.243,0-25.383-4.713-34.839-12.551
		c-2.768-1.992-5.39-4.238-7.812-6.838c-5.424-5.835-9.372-12.558-11.521-20.222c-0.995-3.559-1.703-7.244-2.075-10.919
		c-0.851-8.388,1.017-16.349,4.385-24.004c3.639-8.269,8.055-16.122,12.905-23.726c11.268-17.669,22.608-35.293,33.926-52.932
		c0.639-0.987,1.312-1.955,2.029-2.883c1.78-2.301,3.245-2.275,5.123,0.094c0.607,0.768,1.146,1.591,1.678,2.413
		c9.364,14.474,18.827,28.885,28.044,43.451c5.55,8.765,10.756,17.746,16.043,26.671c3.233,5.455,4.832,11.548,6.294,17.631
		c0.584,2.438,0.381,5.065,0.555,7.896C928.905,750.973,928.837,752.287,928.731,753.595z"/>
	<g opacity="0.2">
		<linearGradient id="SVGID_9_" gradientUnits="userSpaceOnUse" x1="128.0415" y1="596.4316" x2="1065.8906" y2="596.4316">
			<stop  offset="0" style="stop-color:#FFFFFF"/>
			<stop  offset="1" style="stop-color:#FFFFFF;stop-opacity:0"/>
		</linearGradient>
		<path fill="none" stroke="url(#SVGID_9_)" stroke-width="7.0127" stroke-miterlimit="10" d="M596.966,1131.545
			c-2.572,0-5.144-0.666-7.451-1.996L138.999,869.441c-4.611-2.662-7.451-7.58-7.451-12.904V336.323
			c0-5.323,2.84-10.243,7.451-12.906L589.515,63.314c4.611-2.663,10.292-2.663,14.902,0l450.516,260.103
			c4.611,2.663,7.451,7.583,7.451,12.906v520.214c0,5.324-2.84,10.242-7.451,12.904l-450.516,260.107
			C602.113,1130.879,599.54,1131.545,596.966,1131.545z M161.352,847.933l435.614,251.502l435.614-251.502V344.929L596.966,93.427
			L161.352,344.929V847.933z"/>
	</g>
</g>
</svg>
